<svg xmlns="http://www.w3.org/2000/svg" width="20" height="18" viewBox="0 0 20 18"><defs><style>.a{fill:none;}.b,.c{stroke:none;}.c{fill:#ae85ff;}</style></defs><g class="a"><path class="b" d="M10,18C4.623,14.406,1.8,11.136.647,8.4-2.452,1.067,6.4-2.44,10,1.889,13.6-2.44,22.452,1.067,19.353,8.4,18.2,11.136,15.377,14.406,10,18Z"/><path class="c" d="M 10.00000190734863 15.57270622253418 C 14.86284255981445 12.12702560424805 16.77174949645996 9.371030807495117 17.51112174987793 7.621595859527588 C 18.17262268066406 6.055875778198242 18.16044235229492 4.682605743408203 17.47589111328125 3.650245666503906 C 16.8111515045166 2.647765636444092 15.51770210266113 2.000005722045898 14.18067169189453 2.000005722045898 C 13.55643177032471 2.000005722045898 12.38294219970703 2.151735782623291 11.53738212585449 3.16791558265686 L 10.00000190734863 5.015495777130127 L 8.462632179260254 3.16791558265686 C 7.617062091827393 2.151735782623291 6.443572044372559 2.000005722045898 5.819332122802734 2.000005722045898 C 4.482491970062256 2.000005722045898 3.189121961593628 2.647825717926025 2.524321794509888 3.650395631790161 C 1.839711904525757 4.682835578918457 1.827461957931519 6.056055545806885 2.488791942596436 7.621375560760498 C 3.228247880935669 9.371016502380371 5.137161254882813 12.12702465057373 10.00000190734863 15.57270622253418 M 10.00000190734863 18.0000057220459 C 4.623062133789063 14.40599536895752 1.803071856498718 11.13640594482422 0.6465619206428528 8.399965286254883 C -1.524898290634155 3.260299921035767 2.172824859619141 3.851470864901785e-06 5.819330215454102 3.851470864901785e-06 C 7.37567663192749 3.851470864901785e-06 8.922475814819336 0.5937146544456482 10.00000190734863 1.888665676116943 C 11.07730770111084 0.5939788818359375 12.62464904785156 3.851470864901785e-06 14.1806755065918 3.851470864901785e-06 C 17.82749176025391 3.851470864901785e-06 21.52509880065918 3.259852409362793 19.35344123840332 8.399965286254883 C 18.19693183898926 11.13640594482422 15.3769416809082 14.40599536895752 10.00000190734863 18.0000057220459 Z"/></g></svg>